<svg width="100" height="100" viewBox="0 0 100 100">
	<g transform="matrix(1 0 0 1 50 50)" id="afe44377-f407-41d0-8106-9af90f392de8"  >
	<rect style="stroke: none; stroke-width: 1; stroke-dasharray: none; stroke-linecap: butt; stroke-dashoffset: 0; stroke-linejoin: miter; stroke-miterlimit: 4; fill: rgb(255,255,255); fill-rule: nonzero; opacity: 1; visibility: hidden;" vector-effect="non-scaling-stroke"  x="-50" y="-50" rx="0" ry="0" width="100" height="100" />
	</g>
	<g transform="matrix(Infinity NaN NaN Infinity 0 0)" id="bd1dfac2-05b2-4d5d-b685-a55ec7576bf3"  >
	</g>
	<g transform="matrix(0.09 0 0 0.09 50 50)"  >
	<g style="" vector-effect="non-scaling-stroke"   >
			<g transform="matrix(1 0 0 1 0 0)"  >
	<rect style="stroke: none; stroke-width: 1; stroke-dasharray: none; stroke-linecap: butt; stroke-dashoffset: 0; stroke-linejoin: miter; stroke-miterlimit: 4; fill: rgb(255,255,255); fill-rule: nonzero; opacity: 1; visibility: hidden;" vector-effect="non-scaling-stroke"  x="-540" y="-540" rx="0" ry="0" width="1080" height="1080" />
	</g>
			<g transform="matrix(23.07 0 0 22.97 0 -194.36)"  >
	<path style="stroke: rgb(0,0,0); stroke-width: 0; stroke-dasharray: none; stroke-linecap: butt; stroke-dashoffset: 0; stroke-linejoin: miter; stroke-miterlimit: 4; fill: rgb(255,255,255); fill-rule: nonzero; opacity: 1;" vector-effect="non-scaling-stroke"  transform=" translate(-8, -8)" d="M 8 1 C 5.790861000676826 1 4 2.790861000676826 4 5 C 4 7.209138999323174 5.790861000676826 9 8 9 C 10.209138999323173 9 12 7.209138999323174 12 5 C 12 2.790861000676826 10.209138999323173 1 8 1 M 3 5 C 3.0000338751399567 2.303557584653532 5.1381869030729455 0.09284084062539133 7.83312716828829 0.002848244551788781 C 10.528067433503635 -0.08714435152181377 12.808938467424817 1.9760071746159822 12.988857192000962 4.666440402364612 C 13.168775916577108 7.356873630113243 11.1829263283415 9.705355758231288 8.5 9.975 L 8.5 15.5 C 8.5 15.776142374915397 8.276142374915397 16 8 16 C 7.723857625084603 16 7.5 15.776142374915397 7.5 15.5 L 7.5 9.975 C 4.945044759750164 9.718217336930104 2.999967740688162 7.567826632522669 3 5.000000000000003" stroke-linecap="round" />
	</g>
			<g transform="matrix(0 27.75 -12.7 0 -4.83 88.28)"  >
	<path style="stroke: rgb(0,0,0); stroke-width: 0; stroke-dasharray: none; stroke-linecap: butt; stroke-dashoffset: 0; stroke-linejoin: miter; stroke-miterlimit: 4; fill: rgb(255,255,255); fill-rule: nonzero; opacity: 1;" vector-effect="non-scaling-stroke"  transform=" translate(-8, -8)" d="M 6 2 C 6.2105150377374505 2.0000895674968415 6.398424899744953 2.1320262791191307 6.47 2.3300000000000005 L 10 12.036 L 11.53 7.827999999999999 C 11.602240529585822 7.630814583389808 11.789998248012683 7.499783664998295 12 7.5 L 15.5 7.5 C 15.776142374915397 7.5 16 7.723857625084603 16 8 C 16 8.276142374915397 15.776142374915397 8.5 15.5 8.5 L 12.35 8.5 L 10.469999999999999 13.67 C 10.398229150653615 13.867742239874726 10.210364084973113 13.99941277890768 10 13.99941277890768 C 9.789635915026885 13.99941277890768 9.601770849346384 13.867742239874726 9.53 13.67 L 6 3.964 L 4.47 8.171 C 4.398091736824248 8.368579536647996 4.210258097669013 8.500063084056661 4 8.5 L 0.5 8.5 C 0.22385762508460327 8.5 0 8.276142374915397 0 8 C 0 7.723857625084603 0.22385762508460327 7.5 0.5 7.5 L 3.65 7.5 L 5.529999999999999 2.33 C 5.601575100255047 2.1320262791191302 5.7894849622625495 2.0000895674968415 6 2" stroke-linecap="round" />
	</g>
	</g>
	</g>
</svg>